<svg xmlns="http://www.w3.org/2000/svg" width="137" height="20" role="img" aria-label="View source code">
  <title>View source code</title>
  <rect width="137" height="20" rx="3" fill="#24292f"/>
  <path fill="#fff" d="M8.5 4.8c-2.4 1.1-4 3.5-4 6.2 0 4.4 3.6 8 8 8 4.4 0 8-3.6 8-8 0-2.7-1.6-5.1-4-6.2v1.4c0 .6-.5 1.1-1.1 1.1h-1.1v2.2c0 .3-.2.5-.5.5H9.6c-.3 0-.5-.2-.5-.5v-2.2H8c-.6 0-1.1-.5-1.1-1.1V4.8zm2.7 9.5c-.3 0-.5-.2-.5-.5s.2-.5.5-.5.5.2.5.5-.2.5-.5.5zm3.6 0c-.3 0-.5-.2-.5-.5s.2-.5.5-.5.5.2.5.5-.2.5-.5.5z"/>
  <text x="24" y="14" fill="#fff" font-family="system-ui,-apple-system,BlinkMacSystemFont,Segoe UI,Helvetica,Arial,sans-serif" font-size="11" font-weight="600">View source code</text>
</svg>
